<svg width="27" height="27" viewBox="0 0 27 27" fill="none" xmlns="http://www.w3.org/2000/svg">
<path d="M13.5 0.609375C11.2432 0.60996 9.02611 1.20286 7.07027 2.32882C5.11444 3.45477 3.48838 5.07435 2.35461 7.02567C1.22085 8.97699 0.619096 11.1917 0.609492 13.4485C0.599888 15.7052 1.18277 17.925 2.29989 19.8859L1.13916 23.9486C1.06339 24.2138 1.05993 24.4945 1.12914 24.7615C1.19834 25.0286 1.3377 25.2722 1.53276 25.4673C1.72783 25.6623 1.9715 25.8017 2.23854 25.8709C2.50557 25.9401 2.78625 25.9366 3.05149 25.8608L7.11417 24.7001C8.8294 25.678 10.7463 26.2489 12.7171 26.3686C14.6878 26.4884 16.6598 26.1539 18.4808 25.3909C20.3018 24.628 21.9233 23.4569 23.2201 21.9681C24.5169 20.4793 25.4544 18.7125 25.9603 16.804C26.4662 14.8955 26.5269 12.8963 26.1379 10.9606C25.7488 9.02494 24.9203 7.20448 23.7164 5.63965C22.5124 4.07483 20.965 2.80746 19.1937 1.93531C17.4224 1.06315 15.4744 0.60951 13.5 0.609375ZM13.5 25.3594C11.3701 25.3608 9.27914 24.7878 7.44751 23.7007C7.38713 23.6648 7.32003 23.6415 7.25034 23.6325C7.18066 23.6234 7.10985 23.6288 7.04229 23.6481L2.76812 24.8693C2.6797 24.8946 2.58614 24.8957 2.49713 24.8726C2.40812 24.8496 2.3269 24.8031 2.26188 24.7381C2.19687 24.6731 2.15043 24.5918 2.12737 24.5028C2.10432 24.4138 2.10549 24.3202 2.13076 24.2318L3.35184 19.9578C3.37114 19.8902 3.37643 19.8194 3.36738 19.7497C3.35833 19.68 3.33514 19.6129 3.29923 19.5526C1.96345 17.3021 1.40948 14.673 1.7236 12.0749C2.03773 9.47683 3.20232 7.05556 5.03596 5.18831C6.86959 3.32106 9.26931 2.11268 11.8613 1.75141C14.4533 1.39013 17.0919 1.89626 19.3663 3.19094C21.6406 4.48562 23.4229 6.49615 24.4355 8.90934C25.4481 11.3225 25.6342 14.0029 24.9647 16.5328C24.2952 19.0628 22.8078 21.3003 20.7341 22.8967C18.6605 24.4932 16.117 25.3591 13.5 25.3594ZM20.0112 15.8903L17.3739 14.3832C17.1352 14.247 16.8647 14.1768 16.59 14.1797C16.3152 14.1826 16.0462 14.2586 15.8106 14.3998L14.0308 15.4677C12.9534 14.9218 12.0781 14.0466 11.5323 12.9691L12.6001 11.1894C12.7413 10.9537 12.8173 10.6847 12.8202 10.41C12.8231 10.1353 12.7529 9.86475 12.6167 9.62614L11.1097 6.98872C10.9866 6.774 10.8091 6.59554 10.5951 6.47133C10.3811 6.34712 10.138 6.28155 9.89056 6.28125C8.79929 6.28152 7.75256 6.7141 6.97947 7.4843C6.20638 8.25451 5.7699 9.29962 5.76556 10.3909C5.76356 11.8141 6.04216 13.2238 6.58542 14.5393C7.12867 15.8548 7.92594 17.0503 8.93161 18.0574C9.93727 19.0645 11.1316 19.8635 12.4463 20.4086C13.761 20.9537 15.1703 21.2343 16.5936 21.2344H16.609C17.7003 21.23 18.7454 20.7935 19.5156 20.0205C20.2858 19.2474 20.7184 18.2007 20.7187 17.1094C20.7184 16.8619 20.6529 16.6189 20.5286 16.4048C20.4044 16.1908 20.2259 16.0133 20.0112 15.8903ZM16.6076 20.2031H16.5936C15.3059 20.2031 14.0308 19.9493 12.8413 19.4561C11.6518 18.9628 10.5712 18.24 9.66132 17.3288C8.75142 16.4176 8.03008 15.336 7.53856 14.1458C7.04705 12.9555 6.79499 11.6801 6.79681 10.3924C6.80037 9.57426 7.1279 8.79085 7.70772 8.21363C8.28754 7.6364 9.07241 7.31239 9.89056 7.3125C9.95628 7.31258 10.0208 7.32999 10.0777 7.36296C10.1345 7.39594 10.1816 7.44331 10.2143 7.50032L11.7214 10.1379C11.7667 10.2174 11.7901 10.3076 11.7892 10.3991C11.7882 10.4907 11.7629 10.5804 11.7158 10.6589L10.5055 12.6761C10.4627 12.7474 10.4378 12.828 10.4329 12.911C10.428 12.994 10.4433 13.077 10.4774 13.1528C11.1504 14.6507 12.3493 15.8496 13.8472 16.5226C13.923 16.5568 14.006 16.572 14.089 16.5671C14.1721 16.5622 14.2527 16.5373 14.324 16.4944L16.341 15.2842C16.4196 15.2371 16.5093 15.2118 16.6009 15.2108C16.6924 15.2098 16.7826 15.2331 16.8622 15.2785L19.4997 16.7857C19.5567 16.8184 19.604 16.8655 19.637 16.9223C19.67 16.9792 19.6874 17.0437 19.6874 17.1094C19.6875 17.9275 19.3635 18.7124 18.7863 19.2922C18.2091 19.872 17.4257 20.1995 16.6076 20.2031Z" fill="#1E1E1E"/>
</svg>
